<mxfile host="app.diagrams.net" modified="2025-10-26T08:00:00.000Z" agent="ChatGPT" version="20.3.0">
  <diagram id="architecture" name="ADF Architecture">
    <mxGraphModel dx="1180" dy="820" grid="1" gridSize="10" guides="1" tooltips="1" connect="1" arrows="1" fold="1" page="1" pageScale="1" pageWidth="850" pageHeight="1100">
      <root>
        <mxCell id="0"/>
        <mxCell id="1" parent="0"/>

        <!-- User -->
        <mxCell id="user" value="User" style="shape=ellipse;whiteSpace=wrap;html=1;fillColor=#dae8fc;strokeColor=#6c8ebf;" vertex="1" parent="1">
          <mxGeometry x="100" y="50" width="80" height="60" as="geometry"/>
        </mxCell>

        <!-- Form submission -->
        <mxCell id="form" value="Interactive Form Submission" style="shape=rectangle;whiteSpace=wrap;html=1;fillColor=#fff2cc;strokeColor=#d6b656;" vertex="1" parent="1">
          <mxGeometry x="100" y="150" width="180" height="60" as="geometry"/>
        </mxCell>
        <mxCell id="c1" edge="1" source="user" target="form" style="endArrow=classic;" parent="1">
          <mxGeometry relative="1" as="geometry"/>
        </mxCell>

        <!-- Databases -->
        <mxCell id="postgres" value="PostgreSQL" style="shape=cylinder;whiteSpace=wrap;html=1;fillColor=#e1d5e7;strokeColor=#9673a6;" vertex="1" parent="1">
          <mxGeometry x="50" y="270" width="100" height="80" as="geometry"/>
        </mxCell>
        <mxCell id="mongo" value="MongoDB" style="shape=cylinder;whiteSpace=wrap;html=1;fillColor=#d5e8d4;strokeColor=#82b366;" vertex="1" parent="1">
          <mxGeometry x="200" y="270" width="100" height="80" as="geometry"/>
        </mxCell>
        <mxCell id="c2" edge="1" source="form" target="postgres" style="endArrow=classic;" parent="1">
          <mxGeometry relative="1" as="geometry"/>
        </mxCell>
        <mxCell id="c3" edge="1" source="form" target="mongo" style="endArrow=classic;" parent="1">
          <mxGeometry relative="1" as="geometry"/>
        </mxCell>

        <!-- ADF -->
        <mxCell id="adf" value="Azure Data Factory Pipeline" style="shape=hexagon;whiteSpace=wrap;html=1;fillColor=#cce5ff;strokeColor=#003366;" vertex="1" parent="1">
          <mxGeometry x="120" y="400" width="160" height="80" as="geometry"/>
        </mxCell>
        <mxCell id="c4" edge="1" source="postgres" target="adf" style="endArrow=classic;" parent="1">
          <mxGeometry relative="1" as="geometry"/>
        </mxCell>
        <mxCell id="c5" edge="1" source="mongo" target="adf" style="endArrow=classic;" parent="1">
          <mxGeometry relative="1" as="geometry"/>
        </mxCell>

        <!-- ADLS -->
        <mxCell id="adls" value="ADLS Gen2" style="shape=cloud;whiteSpace=wrap;html=1;fillColor=#dae8fc;strokeColor=#6c8ebf;" vertex="1" parent="1">
          <mxGeometry x="120" y="520" width="160" height="80" as="geometry"/>
        </mxCell>
        <mxCell id="c6" edge="1" source="adf" target="adls" style="endArrow=classic;" parent="1">
          <mxGeometry relative="1" as="geometry"/>
        </mxCell>

        <!-- Delta Table -->
        <mxCell id="delta" value="Delta Tables" style="shape=rectangle;whiteSpace=wrap;html=1;fillColor=#fff2cc;strokeColor=#d6b656;" vertex="1" parent="1">
          <mxGeometry x="120" y="640" width="160" height="60" as="geometry"/>
        </mxCell>
        <mxCell id="c7" edge="1" source="adls" target="delta" style="endArrow=classic;" parent="1">
          <mxGeometry relative="1" as="geometry"/>
        </mxCell>

        <!-- ML -->
        <mxCell id="ml" value="Machine Learning Model" style="shape=ellipse;whiteSpace=wrap;html=1;fillColor=#f8cecc;strokeColor=#b85450;" vertex="1" parent="1">
          <mxGeometry x="120" y="740" width="160" height="60" as="geometry"/>
        </mxCell>
        <mxCell id="c8" edge="1" source="delta" target="ml" style="endArrow=classic;" parent="1">
          <mxGeometry relative="1" as="geometry"/>
        </mxCell>
      </root>
    </mxGraphModel>
  </diagram>
</mxfile>